<mxfile host="app.diagrams.net" agent="Mozilla/5.0 (Windows NT 10.0; Win64; x64) AppleWebKit/537.36 (KHTML, like Gecko) Chrome/131.0.0.0 Safari/537.36" version="26.0.6">
  <diagram name="페이지-1" id="gyFyMYABRb8ZcKNa7yku">
    <mxGraphModel dx="989" dy="532" grid="1" gridSize="10" guides="1" tooltips="1" connect="1" arrows="1" fold="1" page="1" pageScale="1" pageWidth="827" pageHeight="1169" math="0" shadow="0">
      <root>
        <mxCell id="0" />
        <mxCell id="1" parent="0" />
        <mxCell id="PB5WTMq_3ZUxNJViB-pG-1" value="Limbus Company&lt;br&gt;&lt;div&gt;전투 명령&lt;/div&gt;&lt;div&gt;시작&lt;/div&gt;" style="rounded=1;whiteSpace=wrap;html=1;arcSize=50;fontSize=10;fontStyle=1" vertex="1" parent="1">
          <mxGeometry x="80" y="40" width="120" height="40" as="geometry" />
        </mxCell>
        <mxCell id="PB5WTMq_3ZUxNJViB-pG-2" value="턴 시작" style="rounded=1;whiteSpace=wrap;html=1;arcSize=0;fontSize=10;fontStyle=1" vertex="1" parent="1">
          <mxGeometry x="80" y="90" width="120" height="20" as="geometry" />
        </mxCell>
        <mxCell id="PB5WTMq_3ZUxNJViB-pG-3" value="속도 분배" style="rounded=1;whiteSpace=wrap;html=1;arcSize=0;fontSize=10;fontStyle=1" vertex="1" parent="1">
          <mxGeometry x="80" y="120" width="120" height="20" as="geometry" />
        </mxCell>
      </root>
    </mxGraphModel>
  </diagram>
</mxfile>
